<?xml version="1.0" encoding="utf-8" standalone="no"?>
<!DOCTYPE svg PUBLIC "-//W3C//DTD SVG 1.1//EN"
  "http://www.w3.org/Graphics/SVG/1.1/DTD/svg11.dtd">
<svg height="228.112517pt" version="1.1" viewBox="0 0 431.337947 228.112517" width="431.337947pt" xmlns="http://www.w3.org/2000/svg" xmlns:xlink="http://www.w3.org/1999/xlink">
 <metadata>
  <rdf:RDF xmlns:cc="http://creativecommons.org/ns#" xmlns:dc="http://purl.org/dc/elements/1.1/" xmlns:rdf="http://www.w3.org/1999/02/22-rdf-syntax-ns#">
   <cc:Work>
    <dc:type rdf:resource="http://purl.org/dc/dcmitype/StillImage"/>
    <dc:date>2021-05-04T16:18:29.968443</dc:date>
    <dc:format>image/svg+xml</dc:format>
    <dc:creator>
     <cc:Agent>
      <dc:title>Matplotlib v3.4.1, https://matplotlib.org/</dc:title>
     </cc:Agent>
    </dc:creator>
   </cc:Work>
  </rdf:RDF>
 </metadata>
 <defs>
  <style type="text/css">*{stroke-linecap:butt;stroke-linejoin:round;}</style>
 </defs>
 <g id="figure_1">
  <g id="patch_1">
   <path d="M 0 228.112517 
L 431.337947 228.112517 
L 431.337947 0 
L 0 0 
z
" style="fill:#ffffff;"/>
  </g>
  <g id="axes_1">
   <g id="patch_2">
    <path d="M 59.460781 188.362205 
L 424.137947 188.362205 
L 424.137947 7.2 
L 59.460781 7.2 
z
" style="fill:#ffffff;"/>
   </g>
   <g id="matplotlib.axis_1">
    <g id="xtick_1">
     <g id="line2d_1">
      <defs>
       <path d="M 0 0 
L 0 3.5 
" id="m037ad24881" style="stroke:#000000;stroke-width:0.8;"/>
      </defs>
      <g>
       <use style="stroke:#000000;stroke-width:0.8;" x="76.037016" xlink:href="#m037ad24881" y="188.362205"/>
      </g>
     </g>
     <g id="text_1">
      <!-- 0 -->
      <g transform="translate(73.173891 202.200798)scale(0.09 -0.09)">
       <defs>
        <path d="M 2034 4250 
Q 1547 4250 1301 3770 
Q 1056 3291 1056 2328 
Q 1056 1369 1301 889 
Q 1547 409 2034 409 
Q 2525 409 2770 889 
Q 3016 1369 3016 2328 
Q 3016 3291 2770 3770 
Q 2525 4250 2034 4250 
z
M 2034 4750 
Q 2819 4750 3233 4129 
Q 3647 3509 3647 2328 
Q 3647 1150 3233 529 
Q 2819 -91 2034 -91 
Q 1250 -91 836 529 
Q 422 1150 422 2328 
Q 422 3509 836 4129 
Q 1250 4750 2034 4750 
z
" id="DejaVuSans-30" transform="scale(0.015625)"/>
       </defs>
       <use xlink:href="#DejaVuSans-30"/>
      </g>
     </g>
    </g>
    <g id="xtick_2">
     <g id="line2d_2">
      <g>
       <use style="stroke:#000000;stroke-width:0.8;" x="117.529469" xlink:href="#m037ad24881" y="188.362205"/>
      </g>
     </g>
     <g id="text_2">
      <!-- 10 -->
      <g transform="translate(111.803219 202.200798)scale(0.09 -0.09)">
       <defs>
        <path d="M 794 531 
L 1825 531 
L 1825 4091 
L 703 3866 
L 703 4441 
L 1819 4666 
L 2450 4666 
L 2450 531 
L 3481 531 
L 3481 0 
L 794 0 
L 794 531 
z
" id="DejaVuSans-31" transform="scale(0.015625)"/>
       </defs>
       <use xlink:href="#DejaVuSans-31"/>
       <use x="63.623047" xlink:href="#DejaVuSans-30"/>
      </g>
     </g>
    </g>
    <g id="xtick_3">
     <g id="line2d_3">
      <g>
       <use style="stroke:#000000;stroke-width:0.8;" x="159.021921" xlink:href="#m037ad24881" y="188.362205"/>
      </g>
     </g>
     <g id="text_3">
      <!-- 20 -->
      <g transform="translate(153.295671 202.200798)scale(0.09 -0.09)">
       <defs>
        <path d="M 1228 531 
L 3431 531 
L 3431 0 
L 469 0 
L 469 531 
Q 828 903 1448 1529 
Q 2069 2156 2228 2338 
Q 2531 2678 2651 2914 
Q 2772 3150 2772 3378 
Q 2772 3750 2511 3984 
Q 2250 4219 1831 4219 
Q 1534 4219 1204 4116 
Q 875 4013 500 3803 
L 500 4441 
Q 881 4594 1212 4672 
Q 1544 4750 1819 4750 
Q 2544 4750 2975 4387 
Q 3406 4025 3406 3419 
Q 3406 3131 3298 2873 
Q 3191 2616 2906 2266 
Q 2828 2175 2409 1742 
Q 1991 1309 1228 531 
z
" id="DejaVuSans-32" transform="scale(0.015625)"/>
       </defs>
       <use xlink:href="#DejaVuSans-32"/>
       <use x="63.623047" xlink:href="#DejaVuSans-30"/>
      </g>
     </g>
    </g>
    <g id="xtick_4">
     <g id="line2d_4">
      <g>
       <use style="stroke:#000000;stroke-width:0.8;" x="200.514374" xlink:href="#m037ad24881" y="188.362205"/>
      </g>
     </g>
     <g id="text_4">
      <!-- 30 -->
      <g transform="translate(194.788124 202.200798)scale(0.09 -0.09)">
       <defs>
        <path d="M 2597 2516 
Q 3050 2419 3304 2112 
Q 3559 1806 3559 1356 
Q 3559 666 3084 287 
Q 2609 -91 1734 -91 
Q 1441 -91 1130 -33 
Q 819 25 488 141 
L 488 750 
Q 750 597 1062 519 
Q 1375 441 1716 441 
Q 2309 441 2620 675 
Q 2931 909 2931 1356 
Q 2931 1769 2642 2001 
Q 2353 2234 1838 2234 
L 1294 2234 
L 1294 2753 
L 1863 2753 
Q 2328 2753 2575 2939 
Q 2822 3125 2822 3475 
Q 2822 3834 2567 4026 
Q 2313 4219 1838 4219 
Q 1578 4219 1281 4162 
Q 984 4106 628 3988 
L 628 4550 
Q 988 4650 1302 4700 
Q 1616 4750 1894 4750 
Q 2613 4750 3031 4423 
Q 3450 4097 3450 3541 
Q 3450 3153 3228 2886 
Q 3006 2619 2597 2516 
z
" id="DejaVuSans-33" transform="scale(0.015625)"/>
       </defs>
       <use xlink:href="#DejaVuSans-33"/>
       <use x="63.623047" xlink:href="#DejaVuSans-30"/>
      </g>
     </g>
    </g>
    <g id="xtick_5">
     <g id="line2d_5">
      <g>
       <use style="stroke:#000000;stroke-width:0.8;" x="242.006826" xlink:href="#m037ad24881" y="188.362205"/>
      </g>
     </g>
     <g id="text_5">
      <!-- 40 -->
      <g transform="translate(236.280576 202.200798)scale(0.09 -0.09)">
       <defs>
        <path d="M 2419 4116 
L 825 1625 
L 2419 1625 
L 2419 4116 
z
M 2253 4666 
L 3047 4666 
L 3047 1625 
L 3713 1625 
L 3713 1100 
L 3047 1100 
L 3047 0 
L 2419 0 
L 2419 1100 
L 313 1100 
L 313 1709 
L 2253 4666 
z
" id="DejaVuSans-34" transform="scale(0.015625)"/>
       </defs>
       <use xlink:href="#DejaVuSans-34"/>
       <use x="63.623047" xlink:href="#DejaVuSans-30"/>
      </g>
     </g>
    </g>
    <g id="xtick_6">
     <g id="line2d_6">
      <g>
       <use style="stroke:#000000;stroke-width:0.8;" x="283.499279" xlink:href="#m037ad24881" y="188.362205"/>
      </g>
     </g>
     <g id="text_6">
      <!-- 50 -->
      <g transform="translate(277.773029 202.200798)scale(0.09 -0.09)">
       <defs>
        <path d="M 691 4666 
L 3169 4666 
L 3169 4134 
L 1269 4134 
L 1269 2991 
Q 1406 3038 1543 3061 
Q 1681 3084 1819 3084 
Q 2600 3084 3056 2656 
Q 3513 2228 3513 1497 
Q 3513 744 3044 326 
Q 2575 -91 1722 -91 
Q 1428 -91 1123 -41 
Q 819 9 494 109 
L 494 744 
Q 775 591 1075 516 
Q 1375 441 1709 441 
Q 2250 441 2565 725 
Q 2881 1009 2881 1497 
Q 2881 1984 2565 2268 
Q 2250 2553 1709 2553 
Q 1456 2553 1204 2497 
Q 953 2441 691 2322 
L 691 4666 
z
" id="DejaVuSans-35" transform="scale(0.015625)"/>
       </defs>
       <use xlink:href="#DejaVuSans-35"/>
       <use x="63.623047" xlink:href="#DejaVuSans-30"/>
      </g>
     </g>
    </g>
    <g id="xtick_7">
     <g id="line2d_7">
      <g>
       <use style="stroke:#000000;stroke-width:0.8;" x="324.991731" xlink:href="#m037ad24881" y="188.362205"/>
      </g>
     </g>
     <g id="text_7">
      <!-- 60 -->
      <g transform="translate(319.265481 202.200798)scale(0.09 -0.09)">
       <defs>
        <path d="M 2113 2584 
Q 1688 2584 1439 2293 
Q 1191 2003 1191 1497 
Q 1191 994 1439 701 
Q 1688 409 2113 409 
Q 2538 409 2786 701 
Q 3034 994 3034 1497 
Q 3034 2003 2786 2293 
Q 2538 2584 2113 2584 
z
M 3366 4563 
L 3366 3988 
Q 3128 4100 2886 4159 
Q 2644 4219 2406 4219 
Q 1781 4219 1451 3797 
Q 1122 3375 1075 2522 
Q 1259 2794 1537 2939 
Q 1816 3084 2150 3084 
Q 2853 3084 3261 2657 
Q 3669 2231 3669 1497 
Q 3669 778 3244 343 
Q 2819 -91 2113 -91 
Q 1303 -91 875 529 
Q 447 1150 447 2328 
Q 447 3434 972 4092 
Q 1497 4750 2381 4750 
Q 2619 4750 2861 4703 
Q 3103 4656 3366 4563 
z
" id="DejaVuSans-36" transform="scale(0.015625)"/>
       </defs>
       <use xlink:href="#DejaVuSans-36"/>
       <use x="63.623047" xlink:href="#DejaVuSans-30"/>
      </g>
     </g>
    </g>
    <g id="xtick_8">
     <g id="line2d_8">
      <g>
       <use style="stroke:#000000;stroke-width:0.8;" x="366.484184" xlink:href="#m037ad24881" y="188.362205"/>
      </g>
     </g>
     <g id="text_8">
      <!-- 70 -->
      <g transform="translate(360.757934 202.200798)scale(0.09 -0.09)">
       <defs>
        <path d="M 525 4666 
L 3525 4666 
L 3525 4397 
L 1831 0 
L 1172 0 
L 2766 4134 
L 525 4134 
L 525 4666 
z
" id="DejaVuSans-37" transform="scale(0.015625)"/>
       </defs>
       <use xlink:href="#DejaVuSans-37"/>
       <use x="63.623047" xlink:href="#DejaVuSans-30"/>
      </g>
     </g>
    </g>
    <g id="xtick_9">
     <g id="line2d_9">
      <g>
       <use style="stroke:#000000;stroke-width:0.8;" x="407.976636" xlink:href="#m037ad24881" y="188.362205"/>
      </g>
     </g>
     <g id="text_9">
      <!-- 80 -->
      <g transform="translate(402.250386 202.200798)scale(0.09 -0.09)">
       <defs>
        <path d="M 2034 2216 
Q 1584 2216 1326 1975 
Q 1069 1734 1069 1313 
Q 1069 891 1326 650 
Q 1584 409 2034 409 
Q 2484 409 2743 651 
Q 3003 894 3003 1313 
Q 3003 1734 2745 1975 
Q 2488 2216 2034 2216 
z
M 1403 2484 
Q 997 2584 770 2862 
Q 544 3141 544 3541 
Q 544 4100 942 4425 
Q 1341 4750 2034 4750 
Q 2731 4750 3128 4425 
Q 3525 4100 3525 3541 
Q 3525 3141 3298 2862 
Q 3072 2584 2669 2484 
Q 3125 2378 3379 2068 
Q 3634 1759 3634 1313 
Q 3634 634 3220 271 
Q 2806 -91 2034 -91 
Q 1263 -91 848 271 
Q 434 634 434 1313 
Q 434 1759 690 2068 
Q 947 2378 1403 2484 
z
M 1172 3481 
Q 1172 3119 1398 2916 
Q 1625 2713 2034 2713 
Q 2441 2713 2670 2916 
Q 2900 3119 2900 3481 
Q 2900 3844 2670 4047 
Q 2441 4250 2034 4250 
Q 1625 4250 1398 4047 
Q 1172 3844 1172 3481 
z
" id="DejaVuSans-38" transform="scale(0.015625)"/>
       </defs>
       <use xlink:href="#DejaVuSans-38"/>
       <use x="63.623047" xlink:href="#DejaVuSans-30"/>
      </g>
     </g>
    </g>
    <g id="text_10">
     <!-- z [$\AA$] -->
     <g transform="translate(227.939364 218.416892)scale(0.12 -0.12)">
      <defs>
       <path d="M 353 3500 
L 3084 3500 
L 3084 2975 
L 922 459 
L 3084 459 
L 3084 0 
L 275 0 
L 275 525 
L 2438 3041 
L 353 3041 
L 353 3500 
z
" id="DejaVuSans-7a" transform="scale(0.015625)"/>
       <path id="DejaVuSans-20" transform="scale(0.015625)"/>
       <path d="M 550 4863 
L 1875 4863 
L 1875 4416 
L 1125 4416 
L 1125 -397 
L 1875 -397 
L 1875 -844 
L 550 -844 
L 550 4863 
z
" id="DejaVuSans-5b" transform="scale(0.015625)"/>
       <path d="M 3188 5081 
Q 3188 5278 3048 5417 
Q 2909 5556 2713 5556 
Q 2513 5556 2377 5420 
Q 2241 5284 2241 5081 
Q 2241 4884 2377 4746 
Q 2513 4609 2713 4609 
Q 2909 4609 3048 4746 
Q 3188 4884 3188 5081 
z
M 2203 4397 
Q 2034 4513 1945 4689 
Q 1856 4866 1856 5081 
Q 1856 5438 2106 5689 
Q 2356 5941 2713 5941 
Q 3069 5941 3320 5689 
Q 3572 5438 3572 5081 
Q 3572 4834 3458 4643 
Q 3344 4453 3128 4341 
L 3938 0 
L 3278 0 
L 3084 1197 
L 984 1197 
L 325 0 
L -341 0 
L 2203 4397 
z
M 2584 4044 
L 1275 1722 
L 2988 1722 
L 2584 4044 
z
" id="DejaVuSans-Oblique-c5" transform="scale(0.015625)"/>
       <path d="M 1947 4863 
L 1947 -844 
L 622 -844 
L 622 -397 
L 1369 -397 
L 1369 4416 
L 622 4416 
L 622 4863 
L 1947 4863 
z
" id="DejaVuSans-5d" transform="scale(0.015625)"/>
      </defs>
      <use transform="translate(0 0.171875)" xlink:href="#DejaVuSans-7a"/>
      <use transform="translate(52.490234 0.171875)" xlink:href="#DejaVuSans-20"/>
      <use transform="translate(84.277344 0.171875)" xlink:href="#DejaVuSans-5b"/>
      <use transform="translate(123.291016 0.171875)" xlink:href="#DejaVuSans-Oblique-c5"/>
      <use transform="translate(191.699219 0.171875)" xlink:href="#DejaVuSans-5d"/>
     </g>
    </g>
   </g>
   <g id="matplotlib.axis_2">
    <g id="ytick_1">
     <g id="line2d_10">
      <defs>
       <path d="M 0 0 
L -3.5 0 
" id="m32819d0b0e" style="stroke:#000000;stroke-width:0.8;"/>
      </defs>
      <g>
       <use style="stroke:#000000;stroke-width:0.8;" x="59.460781" xlink:href="#m32819d0b0e" y="172.803545"/>
      </g>
     </g>
     <g id="text_11">
      <!-- −0.02 -->
      <g transform="translate(24.88 176.222841)scale(0.09 -0.09)">
       <defs>
        <path d="M 678 2272 
L 4684 2272 
L 4684 1741 
L 678 1741 
L 678 2272 
z
" id="DejaVuSans-2212" transform="scale(0.015625)"/>
        <path d="M 684 794 
L 1344 794 
L 1344 0 
L 684 0 
L 684 794 
z
" id="DejaVuSans-2e" transform="scale(0.015625)"/>
       </defs>
       <use xlink:href="#DejaVuSans-2212"/>
       <use x="83.789062" xlink:href="#DejaVuSans-30"/>
       <use x="147.412109" xlink:href="#DejaVuSans-2e"/>
       <use x="179.199219" xlink:href="#DejaVuSans-30"/>
       <use x="242.822266" xlink:href="#DejaVuSans-32"/>
      </g>
     </g>
    </g>
    <g id="ytick_2">
     <g id="line2d_11">
      <g>
       <use style="stroke:#000000;stroke-width:0.8;" x="59.460781" xlink:href="#m32819d0b0e" y="133.526697"/>
      </g>
     </g>
     <g id="text_12">
      <!-- −0.01 -->
      <g transform="translate(24.88 136.945994)scale(0.09 -0.09)">
       <use xlink:href="#DejaVuSans-2212"/>
       <use x="83.789062" xlink:href="#DejaVuSans-30"/>
       <use x="147.412109" xlink:href="#DejaVuSans-2e"/>
       <use x="179.199219" xlink:href="#DejaVuSans-30"/>
       <use x="242.822266" xlink:href="#DejaVuSans-31"/>
      </g>
     </g>
    </g>
    <g id="ytick_3">
     <g id="line2d_12">
      <g>
       <use style="stroke:#000000;stroke-width:0.8;" x="59.460781" xlink:href="#m32819d0b0e" y="94.24985"/>
      </g>
     </g>
     <g id="text_13">
      <!-- 0.00 -->
      <g transform="translate(32.421719 97.669147)scale(0.09 -0.09)">
       <use xlink:href="#DejaVuSans-30"/>
       <use x="63.623047" xlink:href="#DejaVuSans-2e"/>
       <use x="95.410156" xlink:href="#DejaVuSans-30"/>
       <use x="159.033203" xlink:href="#DejaVuSans-30"/>
      </g>
     </g>
    </g>
    <g id="ytick_4">
     <g id="line2d_13">
      <g>
       <use style="stroke:#000000;stroke-width:0.8;" x="59.460781" xlink:href="#m32819d0b0e" y="54.973002"/>
      </g>
     </g>
     <g id="text_14">
      <!-- 0.01 -->
      <g transform="translate(32.421719 58.392299)scale(0.09 -0.09)">
       <use xlink:href="#DejaVuSans-30"/>
       <use x="63.623047" xlink:href="#DejaVuSans-2e"/>
       <use x="95.410156" xlink:href="#DejaVuSans-30"/>
       <use x="159.033203" xlink:href="#DejaVuSans-31"/>
      </g>
     </g>
    </g>
    <g id="ytick_5">
     <g id="line2d_14">
      <g>
       <use style="stroke:#000000;stroke-width:0.8;" x="59.460781" xlink:href="#m32819d0b0e" y="15.696155"/>
      </g>
     </g>
     <g id="text_15">
      <!-- 0.02 -->
      <g transform="translate(32.421719 19.115452)scale(0.09 -0.09)">
       <use xlink:href="#DejaVuSans-30"/>
       <use x="63.623047" xlink:href="#DejaVuSans-2e"/>
       <use x="95.410156" xlink:href="#DejaVuSans-30"/>
       <use x="159.033203" xlink:href="#DejaVuSans-32"/>
      </g>
     </g>
    </g>
    <g id="text_16">
     <!-- $\rho$ [$e/\AA^3$] -->
     <g transform="translate(18.36 121.421102)rotate(-90)scale(0.12 -0.12)">
      <defs>
       <path d="M 1203 2875 
Q 1453 3194 1981 3475 
Q 2188 3584 2756 3584 
Q 3394 3584 3694 3078 
Q 3994 2572 3834 1747 
Q 3672 922 3175 415 
Q 2678 -91 2041 -91 
Q 1656 -91 1409 63 
Q 1163 213 1044 525 
L 681 -1331 
L 103 -1331 
L 697 1716 
Q 838 2438 1203 2875 
z
M 3238 1747 
Q 3359 2381 3169 2744 
Q 2978 3103 2522 3103 
Q 2066 3103 1734 2744 
Q 1403 2381 1281 1747 
Q 1156 1113 1347 750 
Q 1538 391 1994 391 
Q 2450 391 2781 750 
Q 3113 1113 3238 1747 
z
" id="DejaVuSans-Oblique-3c1" transform="scale(0.015625)"/>
       <path d="M 3078 2063 
Q 3088 2113 3092 2166 
Q 3097 2219 3097 2272 
Q 3097 2653 2873 2875 
Q 2650 3097 2266 3097 
Q 1838 3097 1509 2826 
Q 1181 2556 1013 2059 
L 3078 2063 
z
M 3578 1613 
L 903 1613 
Q 884 1494 878 1425 
Q 872 1356 872 1306 
Q 872 872 1139 634 
Q 1406 397 1894 397 
Q 2269 397 2603 481 
Q 2938 566 3225 728 
L 3116 159 
Q 2806 34 2476 -28 
Q 2147 -91 1806 -91 
Q 1078 -91 686 257 
Q 294 606 294 1247 
Q 294 1794 489 2264 
Q 684 2734 1063 3103 
Q 1306 3334 1642 3459 
Q 1978 3584 2356 3584 
Q 2950 3584 3301 3228 
Q 3653 2872 3653 2272 
Q 3653 2128 3634 1964 
Q 3616 1800 3578 1613 
z
" id="DejaVuSans-Oblique-65" transform="scale(0.015625)"/>
       <path d="M 1625 4666 
L 2156 4666 
L 531 -594 
L 0 -594 
L 1625 4666 
z
" id="DejaVuSans-2f" transform="scale(0.015625)"/>
      </defs>
      <use transform="translate(0 0.171875)" xlink:href="#DejaVuSans-Oblique-3c1"/>
      <use transform="translate(63.476562 0.171875)" xlink:href="#DejaVuSans-20"/>
      <use transform="translate(95.263672 0.171875)" xlink:href="#DejaVuSans-5b"/>
      <use transform="translate(134.277344 0.171875)" xlink:href="#DejaVuSans-Oblique-65"/>
      <use transform="translate(195.800781 0.171875)" xlink:href="#DejaVuSans-2f"/>
      <use transform="translate(229.492188 0.171875)" xlink:href="#DejaVuSans-Oblique-c5"/>
      <use transform="translate(307.706224 38.453125)scale(0.7)" xlink:href="#DejaVuSans-33"/>
      <use transform="translate(354.976732 0.171875)" xlink:href="#DejaVuSans-5d"/>
     </g>
    </g>
   </g>
   <g id="line2d_15">
    <path clip-path="url(#p3a115d9e7f)" d="M 76.037016 94.24985 
L 77.28179 94.176297 
L 77.696714 93.876316 
L 78.111639 92.772496 
L 78.526563 89.69928 
L 78.941488 83.3336 
L 79.771337 64.576406 
L 80.186261 60.625432 
L 80.601186 64.576406 
L 81.431035 83.3336 
L 81.845959 89.69928 
L 82.260884 92.772496 
L 82.675808 93.876316 
L 83.090733 94.176297 
L 83.920582 94.24985 
L 87.654903 94.185095 
L 88.899676 93.759788 
L 89.314601 94.492306 
L 89.729525 97.467758 
L 90.14445 104.575551 
L 90.559374 117.267301 
L 91.804148 172.037536 
L 92.219073 180.127559 
L 92.633997 175.748509 
L 93.048922 157.471712 
L 93.878771 89.105187 
L 94.293695 53.128432 
L 94.70862 27.029728 
L 95.123544 15.434646 
L 95.538469 18.81819 
L 95.953393 33.636305 
L 96.783242 68.894853 
L 97.198167 78.217442 
L 97.613091 82.233046 
L 98.028016 84.881753 
L 98.44294 89.763426 
L 98.857865 98.768371 
L 99.687714 124.363224 
L 100.102639 133.19248 
L 100.517563 134.978707 
L 100.932488 130.158445 
L 101.762337 110.704312 
L 102.592186 91.029103 
L 103.00711 84.106439 
L 103.422035 79.594662 
L 103.836959 77.18484 
L 104.251884 76.459351 
L 104.666808 76.924768 
L 105.081733 78.086642 
L 105.496657 79.890381 
L 105.911582 82.976725 
L 106.326506 88.151535 
L 107.57128 110.609005 
L 107.986204 115.035355 
L 108.401129 116.176155 
L 108.816054 114.041084 
L 109.230978 108.84187 
L 110.890676 77.476806 
L 111.305601 73.373856 
L 111.720525 71.217764 
L 112.13545 71.570342 
L 112.550374 75.552975 
L 113.380223 90.041791 
L 113.795148 93.362257 
L 114.210072 91.491363 
L 114.624997 87.089665 
L 115.039921 84.069326 
L 115.454846 84.458986 
L 115.86977 88.034521 
L 116.69962 101.039381 
L 117.114544 108.211202 
L 117.529469 113.237764 
L 117.944393 114.382007 
L 118.359318 111.787287 
L 119.189167 103.497053 
L 119.604091 100.695339 
L 120.019016 98.848232 
L 120.43394 97.953464 
L 120.848865 98.24222 
L 121.263789 99.234624 
L 121.678714 99.520873 
L 122.093638 97.795814 
L 122.508563 93.869133 
L 123.338412 83.271278 
L 123.753336 79.637307 
L 124.168261 79.657751 
L 124.583186 84.081166 
L 125.413035 97.753229 
L 125.827959 101.83674 
L 126.242884 102.654898 
L 126.657808 99.892589 
L 127.902582 80.678655 
L 128.317506 81.485481 
L 128.732431 89.002923 
L 129.147355 98.933233 
L 129.56228 105.442615 
L 129.977204 106.449018 
L 130.392129 104.790663 
L 130.807053 104.273599 
L 131.636902 106.772291 
L 132.051827 104.965012 
L 132.466751 99.669089 
L 133.296601 86.299184 
L 133.711525 82.549065 
L 134.12645 81.603011 
L 134.541374 83.15505 
L 135.371223 90.083689 
L 135.786148 91.589655 
L 136.201072 90.971297 
L 136.615997 90.803037 
L 137.030921 93.399876 
L 137.86077 101.797549 
L 138.275695 103.094689 
L 138.690619 102.096042 
L 139.105544 99.236259 
L 139.520468 94.228877 
L 140.350317 80.007816 
L 140.765242 75.766375 
L 141.180167 76.728902 
L 141.595091 82.385352 
L 142.010016 89.567666 
L 142.42494 94.602112 
L 142.839865 95.974678 
L 143.254789 95.535941 
L 143.669714 96.958638 
L 144.084638 102.212788 
L 144.499563 109.171453 
L 144.914487 113.224157 
L 145.329412 111.672859 
L 146.159261 100.706912 
L 146.574185 98.149172 
L 146.98911 98.214413 
L 147.404034 98.545972 
L 147.818959 97.121288 
L 149.478657 83.940742 
L 149.893582 82.389395 
L 150.308506 82.815389 
L 150.723431 85.49469 
L 151.968204 98.436146 
L 152.383129 100.101296 
L 152.798053 99.343118 
L 153.627902 94.808387 
L 154.042827 93.382716 
L 154.457751 93.036066 
L 154.872676 93.51238 
L 155.2876 94.608732 
L 156.532374 100.000344 
L 156.947298 98.35401 
L 157.777148 89.130177 
L 158.192072 86.697807 
L 158.606997 86.822433 
L 159.021921 87.548739 
L 159.436846 87.052372 
L 160.681619 82.026339 
L 161.096544 82.702867 
L 161.511468 86.249677 
L 162.341317 101.388265 
L 162.756242 109.224011 
L 163.171166 114.806865 
L 163.586091 117.489083 
L 164.001015 116.995083 
L 164.41594 113.303786 
L 165.245789 99.199091 
L 166.075638 86.195453 
L 166.490563 83.032392 
L 166.905487 81.831478 
L 167.320412 82.179592 
L 167.735336 84.355633 
L 168.565185 93.07994 
L 168.98011 95.311759 
L 169.395034 93.539852 
L 169.809959 89.313342 
L 170.224883 86.240971 
L 170.639808 86.776357 
L 171.469657 94.237988 
L 171.884581 96.326894 
L 172.299506 96.311085 
L 173.959204 91.872981 
L 174.374129 91.771896 
L 174.789053 93.606398 
L 176.033827 104.528226 
L 176.448751 105.827612 
L 177.693525 106.495484 
L 178.108449 106.329104 
L 178.523374 104.590894 
L 178.938298 100.671488 
L 180.597996 77.060346 
L 181.012921 75.50318 
L 181.427845 77.319878 
L 181.84277 82.269279 
L 182.672619 96.399487 
L 183.087544 101.02019 
L 183.502468 102.414217 
L 183.917393 102.357182 
L 184.332317 103.483796 
L 185.162166 109.273229 
L 185.577091 109.200721 
L 185.992015 105.417201 
L 187.651713 81.639709 
L 188.066638 81.539567 
L 188.481562 85.010775 
L 188.896487 89.757563 
L 189.311411 92.604764 
L 189.726336 91.803145 
L 190.97111 80.949479 
L 191.386034 81.475014 
L 191.800959 85.492219 
L 192.630808 94.912571 
L 193.045732 96.646604 
L 193.460657 97.776208 
L 194.290506 101.243298 
L 194.70543 100.03833 
L 195.950204 86.260794 
L 196.365128 86.602663 
L 196.780053 91.565468 
L 197.609902 108.506332 
L 198.024826 113.712735 
L 198.439751 114.173188 
L 198.854676 110.85844 
L 199.684525 98.313525 
L 200.514374 86.262167 
L 201.344223 77.002729 
L 201.759147 71.078914 
L 202.174072 68.22712 
L 202.588996 72.634589 
L 203.83377 107.737511 
L 204.248694 111.275485 
L 204.663619 109.418379 
L 205.908392 98.762765 
L 206.323317 95.457352 
L 206.738242 93.67512 
L 207.153166 95.631994 
L 207.983015 106.302992 
L 208.39794 108.097798 
L 208.812864 106.093786 
L 209.227789 102.847524 
L 209.642713 100.679271 
L 210.057638 99.19302 
L 210.472562 95.980074 
L 211.717336 78.762336 
L 212.13226 79.943725 
L 212.962109 88.696001 
L 213.377034 90.380228 
L 213.791958 90.530228 
L 214.206883 90.883193 
L 214.621808 91.645533 
L 215.036732 91.616071 
L 215.451657 89.78946 
L 215.866581 86.690076 
L 216.281506 84.600535 
L 216.69643 86.217926 
L 217.111355 92.23496 
L 217.526279 100.061396 
L 217.941204 105.34783 
L 218.356128 105.205457 
L 219.600902 90.510851 
L 220.015826 91.053823 
L 220.845675 97.004893 
L 221.2606 97.226405 
L 221.675524 94.796733 
L 222.505373 87.738887 
L 222.920298 85.236351 
L 223.335223 83.864151 
L 223.750147 84.712009 
L 224.165072 89.400252 
L 224.994921 106.508082 
L 225.409845 112.043922 
L 225.82477 113.162395 
L 226.239694 111.397544 
L 227.484468 102.673459 
L 227.899392 98.405146 
L 228.314317 92.154196 
L 229.144166 76.051843 
L 229.55909 71.906778 
L 229.974015 74.019268 
L 231.218789 95.153756 
L 231.633713 95.290808 
L 232.463562 89.109604 
L 232.878487 89.379562 
L 233.293411 93.560339 
L 234.12326 105.807779 
L 234.538185 108.834071 
L 234.953109 108.267692 
L 235.368034 104.770223 
L 236.197883 95.75715 
L 236.612807 93.590481 
L 237.027732 93.456953 
L 237.442656 93.941855 
L 237.857581 93.326991 
L 238.68743 88.843441 
L 239.102355 88.420121 
L 239.932204 92.516971 
L 240.347128 92.992407 
L 240.762053 92.380272 
L 241.176977 93.482776 
L 242.006826 100.552878 
L 242.421751 99.615981 
L 243.2516 88.8545 
L 243.666524 85.753688 
L 244.081449 85.685703 
L 244.496373 87.667328 
L 245.326222 92.729825 
L 245.741147 93.312674 
L 246.156071 92.155835 
L 246.570996 90.33935 
L 246.98592 89.111168 
L 247.400845 89.006093 
L 247.81577 89.896732 
L 248.230694 91.484693 
L 248.645619 93.653624 
L 249.060543 96.63514 
L 249.475468 100.783794 
L 250.720241 117.788324 
L 251.135166 120.113139 
L 251.55009 117.018317 
L 251.965015 108.354469 
L 252.794864 84.718469 
L 253.209788 76.053276 
L 253.624713 71.956209 
L 254.039637 72.539732 
L 254.454562 77.086107 
L 256.11426 105.63242 
L 256.529185 106.078805 
L 256.944109 102.505762 
L 257.773958 92.255025 
L 258.188883 89.24476 
L 258.603807 88.139783 
L 259.018732 88.956335 
L 260.263505 96.84779 
L 260.67843 96.497119 
L 261.923203 89.230508 
L 262.338128 89.354183 
L 263.167977 91.93649 
L 263.582902 94.382064 
L 263.997826 99.068046 
L 264.412751 105.231125 
L 264.827675 109.69235 
L 265.2426 109.364341 
L 265.657524 103.78377 
L 266.487373 87.33161 
L 266.902298 82.981824 
L 267.317222 83.50632 
L 268.147071 92.464077 
L 268.561996 93.912392 
L 268.97692 91.025641 
L 269.806769 82.305764 
L 270.221694 81.338606 
L 270.636618 83.098333 
L 272.296317 96.802525 
L 273.54109 102.097058 
L 273.956015 102.971308 
L 274.370939 102.769063 
L 274.785864 101.679295 
L 275.615713 97.713462 
L 276.445562 93.956442 
L 276.860486 92.989451 
L 277.275411 92.559202 
L 277.690335 92.647729 
L 278.10526 93.281054 
L 278.935109 95.028439 
L 279.350033 95.30731 
L 279.764958 95.114232 
L 280.594807 94.469251 
L 281.424656 94.268604 
L 284.744052 94.24985 
L 407.561712 94.24985 
L 407.561712 94.24985 
" style="fill:none;stroke:#000000;stroke-linecap:square;stroke-width:1.5;"/>
   </g>
   <g id="patch_3">
    <path d="M 59.460781 188.362205 
L 59.460781 7.2 
" style="fill:none;stroke:#000000;stroke-linecap:square;stroke-linejoin:miter;stroke-width:0.8;"/>
   </g>
   <g id="patch_4">
    <path d="M 424.137947 188.362205 
L 424.137947 7.2 
" style="fill:none;stroke:#000000;stroke-linecap:square;stroke-linejoin:miter;stroke-width:0.8;"/>
   </g>
   <g id="patch_5">
    <path d="M 59.460781 188.362205 
L 424.137947 188.362205 
" style="fill:none;stroke:#000000;stroke-linecap:square;stroke-linejoin:miter;stroke-width:0.8;"/>
   </g>
   <g id="patch_6">
    <path d="M 59.460781 7.2 
L 424.137947 7.2 
" style="fill:none;stroke:#000000;stroke-linecap:square;stroke-linejoin:miter;stroke-width:0.8;"/>
   </g>
  </g>
 </g>
 <defs>
  <clipPath id="p3a115d9e7f">
   <rect height="181.162205" width="364.677165" x="59.460781" y="7.2"/>
  </clipPath>
 </defs>
</svg>
