<?xml version="1.0" encoding="utf-8" standalone="no"?>
<!DOCTYPE svg PUBLIC "-//W3C//DTD SVG 1.1//EN"
  "http://www.w3.org/Graphics/SVG/1.1/DTD/svg11.dtd">
<svg height="228.112517pt" version="1.1" viewBox="0 0 423.571697 228.112517" width="423.571697pt" xmlns="http://www.w3.org/2000/svg" xmlns:xlink="http://www.w3.org/1999/xlink">
 <metadata>
  <rdf:RDF xmlns:cc="http://creativecommons.org/ns#" xmlns:dc="http://purl.org/dc/elements/1.1/" xmlns:rdf="http://www.w3.org/1999/02/22-rdf-syntax-ns#">
   <cc:Work>
    <dc:type rdf:resource="http://purl.org/dc/dcmitype/StillImage"/>
    <dc:date>2021-05-04T16:18:30.408148</dc:date>
    <dc:format>image/svg+xml</dc:format>
    <dc:creator>
     <cc:Agent>
      <dc:title>Matplotlib v3.4.1, https://matplotlib.org/</dc:title>
     </cc:Agent>
    </dc:creator>
   </cc:Work>
  </rdf:RDF>
 </metadata>
 <defs>
  <style type="text/css">*{stroke-linecap:butt;stroke-linejoin:round;}</style>
 </defs>
 <g id="figure_1">
  <g id="patch_1">
   <path d="M 0 228.112517 
L 423.571697 228.112517 
L 423.571697 0 
L 0 0 
z
" style="fill:#ffffff;"/>
  </g>
  <g id="axes_1">
   <g id="patch_2">
    <path d="M 51.694531 188.362205 
L 416.371697 188.362205 
L 416.371697 7.2 
L 51.694531 7.2 
z
" style="fill:#ffffff;"/>
   </g>
   <g id="matplotlib.axis_1">
    <g id="xtick_1">
     <g id="line2d_1">
      <defs>
       <path d="M 0 0 
L 0 3.5 
" id="m5bf7d3a203" style="stroke:#000000;stroke-width:0.8;"/>
      </defs>
      <g>
       <use style="stroke:#000000;stroke-width:0.8;" x="68.270766" xlink:href="#m5bf7d3a203" y="188.362205"/>
      </g>
     </g>
     <g id="text_1">
      <!-- 0 -->
      <g transform="translate(65.407641 202.200798)scale(0.09 -0.09)">
       <defs>
        <path d="M 2034 4250 
Q 1547 4250 1301 3770 
Q 1056 3291 1056 2328 
Q 1056 1369 1301 889 
Q 1547 409 2034 409 
Q 2525 409 2770 889 
Q 3016 1369 3016 2328 
Q 3016 3291 2770 3770 
Q 2525 4250 2034 4250 
z
M 2034 4750 
Q 2819 4750 3233 4129 
Q 3647 3509 3647 2328 
Q 3647 1150 3233 529 
Q 2819 -91 2034 -91 
Q 1250 -91 836 529 
Q 422 1150 422 2328 
Q 422 3509 836 4129 
Q 1250 4750 2034 4750 
z
" id="DejaVuSans-30" transform="scale(0.015625)"/>
       </defs>
       <use xlink:href="#DejaVuSans-30"/>
      </g>
     </g>
    </g>
    <g id="xtick_2">
     <g id="line2d_2">
      <g>
       <use style="stroke:#000000;stroke-width:0.8;" x="109.763219" xlink:href="#m5bf7d3a203" y="188.362205"/>
      </g>
     </g>
     <g id="text_2">
      <!-- 10 -->
      <g transform="translate(104.036969 202.200798)scale(0.09 -0.09)">
       <defs>
        <path d="M 794 531 
L 1825 531 
L 1825 4091 
L 703 3866 
L 703 4441 
L 1819 4666 
L 2450 4666 
L 2450 531 
L 3481 531 
L 3481 0 
L 794 0 
L 794 531 
z
" id="DejaVuSans-31" transform="scale(0.015625)"/>
       </defs>
       <use xlink:href="#DejaVuSans-31"/>
       <use x="63.623047" xlink:href="#DejaVuSans-30"/>
      </g>
     </g>
    </g>
    <g id="xtick_3">
     <g id="line2d_3">
      <g>
       <use style="stroke:#000000;stroke-width:0.8;" x="151.255671" xlink:href="#m5bf7d3a203" y="188.362205"/>
      </g>
     </g>
     <g id="text_3">
      <!-- 20 -->
      <g transform="translate(145.529421 202.200798)scale(0.09 -0.09)">
       <defs>
        <path d="M 1228 531 
L 3431 531 
L 3431 0 
L 469 0 
L 469 531 
Q 828 903 1448 1529 
Q 2069 2156 2228 2338 
Q 2531 2678 2651 2914 
Q 2772 3150 2772 3378 
Q 2772 3750 2511 3984 
Q 2250 4219 1831 4219 
Q 1534 4219 1204 4116 
Q 875 4013 500 3803 
L 500 4441 
Q 881 4594 1212 4672 
Q 1544 4750 1819 4750 
Q 2544 4750 2975 4387 
Q 3406 4025 3406 3419 
Q 3406 3131 3298 2873 
Q 3191 2616 2906 2266 
Q 2828 2175 2409 1742 
Q 1991 1309 1228 531 
z
" id="DejaVuSans-32" transform="scale(0.015625)"/>
       </defs>
       <use xlink:href="#DejaVuSans-32"/>
       <use x="63.623047" xlink:href="#DejaVuSans-30"/>
      </g>
     </g>
    </g>
    <g id="xtick_4">
     <g id="line2d_4">
      <g>
       <use style="stroke:#000000;stroke-width:0.8;" x="192.748124" xlink:href="#m5bf7d3a203" y="188.362205"/>
      </g>
     </g>
     <g id="text_4">
      <!-- 30 -->
      <g transform="translate(187.021874 202.200798)scale(0.09 -0.09)">
       <defs>
        <path d="M 2597 2516 
Q 3050 2419 3304 2112 
Q 3559 1806 3559 1356 
Q 3559 666 3084 287 
Q 2609 -91 1734 -91 
Q 1441 -91 1130 -33 
Q 819 25 488 141 
L 488 750 
Q 750 597 1062 519 
Q 1375 441 1716 441 
Q 2309 441 2620 675 
Q 2931 909 2931 1356 
Q 2931 1769 2642 2001 
Q 2353 2234 1838 2234 
L 1294 2234 
L 1294 2753 
L 1863 2753 
Q 2328 2753 2575 2939 
Q 2822 3125 2822 3475 
Q 2822 3834 2567 4026 
Q 2313 4219 1838 4219 
Q 1578 4219 1281 4162 
Q 984 4106 628 3988 
L 628 4550 
Q 988 4650 1302 4700 
Q 1616 4750 1894 4750 
Q 2613 4750 3031 4423 
Q 3450 4097 3450 3541 
Q 3450 3153 3228 2886 
Q 3006 2619 2597 2516 
z
" id="DejaVuSans-33" transform="scale(0.015625)"/>
       </defs>
       <use xlink:href="#DejaVuSans-33"/>
       <use x="63.623047" xlink:href="#DejaVuSans-30"/>
      </g>
     </g>
    </g>
    <g id="xtick_5">
     <g id="line2d_5">
      <g>
       <use style="stroke:#000000;stroke-width:0.8;" x="234.240576" xlink:href="#m5bf7d3a203" y="188.362205"/>
      </g>
     </g>
     <g id="text_5">
      <!-- 40 -->
      <g transform="translate(228.514326 202.200798)scale(0.09 -0.09)">
       <defs>
        <path d="M 2419 4116 
L 825 1625 
L 2419 1625 
L 2419 4116 
z
M 2253 4666 
L 3047 4666 
L 3047 1625 
L 3713 1625 
L 3713 1100 
L 3047 1100 
L 3047 0 
L 2419 0 
L 2419 1100 
L 313 1100 
L 313 1709 
L 2253 4666 
z
" id="DejaVuSans-34" transform="scale(0.015625)"/>
       </defs>
       <use xlink:href="#DejaVuSans-34"/>
       <use x="63.623047" xlink:href="#DejaVuSans-30"/>
      </g>
     </g>
    </g>
    <g id="xtick_6">
     <g id="line2d_6">
      <g>
       <use style="stroke:#000000;stroke-width:0.8;" x="275.733029" xlink:href="#m5bf7d3a203" y="188.362205"/>
      </g>
     </g>
     <g id="text_6">
      <!-- 50 -->
      <g transform="translate(270.006779 202.200798)scale(0.09 -0.09)">
       <defs>
        <path d="M 691 4666 
L 3169 4666 
L 3169 4134 
L 1269 4134 
L 1269 2991 
Q 1406 3038 1543 3061 
Q 1681 3084 1819 3084 
Q 2600 3084 3056 2656 
Q 3513 2228 3513 1497 
Q 3513 744 3044 326 
Q 2575 -91 1722 -91 
Q 1428 -91 1123 -41 
Q 819 9 494 109 
L 494 744 
Q 775 591 1075 516 
Q 1375 441 1709 441 
Q 2250 441 2565 725 
Q 2881 1009 2881 1497 
Q 2881 1984 2565 2268 
Q 2250 2553 1709 2553 
Q 1456 2553 1204 2497 
Q 953 2441 691 2322 
L 691 4666 
z
" id="DejaVuSans-35" transform="scale(0.015625)"/>
       </defs>
       <use xlink:href="#DejaVuSans-35"/>
       <use x="63.623047" xlink:href="#DejaVuSans-30"/>
      </g>
     </g>
    </g>
    <g id="xtick_7">
     <g id="line2d_7">
      <g>
       <use style="stroke:#000000;stroke-width:0.8;" x="317.225481" xlink:href="#m5bf7d3a203" y="188.362205"/>
      </g>
     </g>
     <g id="text_7">
      <!-- 60 -->
      <g transform="translate(311.499231 202.200798)scale(0.09 -0.09)">
       <defs>
        <path d="M 2113 2584 
Q 1688 2584 1439 2293 
Q 1191 2003 1191 1497 
Q 1191 994 1439 701 
Q 1688 409 2113 409 
Q 2538 409 2786 701 
Q 3034 994 3034 1497 
Q 3034 2003 2786 2293 
Q 2538 2584 2113 2584 
z
M 3366 4563 
L 3366 3988 
Q 3128 4100 2886 4159 
Q 2644 4219 2406 4219 
Q 1781 4219 1451 3797 
Q 1122 3375 1075 2522 
Q 1259 2794 1537 2939 
Q 1816 3084 2150 3084 
Q 2853 3084 3261 2657 
Q 3669 2231 3669 1497 
Q 3669 778 3244 343 
Q 2819 -91 2113 -91 
Q 1303 -91 875 529 
Q 447 1150 447 2328 
Q 447 3434 972 4092 
Q 1497 4750 2381 4750 
Q 2619 4750 2861 4703 
Q 3103 4656 3366 4563 
z
" id="DejaVuSans-36" transform="scale(0.015625)"/>
       </defs>
       <use xlink:href="#DejaVuSans-36"/>
       <use x="63.623047" xlink:href="#DejaVuSans-30"/>
      </g>
     </g>
    </g>
    <g id="xtick_8">
     <g id="line2d_8">
      <g>
       <use style="stroke:#000000;stroke-width:0.8;" x="358.717934" xlink:href="#m5bf7d3a203" y="188.362205"/>
      </g>
     </g>
     <g id="text_8">
      <!-- 70 -->
      <g transform="translate(352.991684 202.200798)scale(0.09 -0.09)">
       <defs>
        <path d="M 525 4666 
L 3525 4666 
L 3525 4397 
L 1831 0 
L 1172 0 
L 2766 4134 
L 525 4134 
L 525 4666 
z
" id="DejaVuSans-37" transform="scale(0.015625)"/>
       </defs>
       <use xlink:href="#DejaVuSans-37"/>
       <use x="63.623047" xlink:href="#DejaVuSans-30"/>
      </g>
     </g>
    </g>
    <g id="xtick_9">
     <g id="line2d_9">
      <g>
       <use style="stroke:#000000;stroke-width:0.8;" x="400.210386" xlink:href="#m5bf7d3a203" y="188.362205"/>
      </g>
     </g>
     <g id="text_9">
      <!-- 80 -->
      <g transform="translate(394.484136 202.200798)scale(0.09 -0.09)">
       <defs>
        <path d="M 2034 2216 
Q 1584 2216 1326 1975 
Q 1069 1734 1069 1313 
Q 1069 891 1326 650 
Q 1584 409 2034 409 
Q 2484 409 2743 651 
Q 3003 894 3003 1313 
Q 3003 1734 2745 1975 
Q 2488 2216 2034 2216 
z
M 1403 2484 
Q 997 2584 770 2862 
Q 544 3141 544 3541 
Q 544 4100 942 4425 
Q 1341 4750 2034 4750 
Q 2731 4750 3128 4425 
Q 3525 4100 3525 3541 
Q 3525 3141 3298 2862 
Q 3072 2584 2669 2484 
Q 3125 2378 3379 2068 
Q 3634 1759 3634 1313 
Q 3634 634 3220 271 
Q 2806 -91 2034 -91 
Q 1263 -91 848 271 
Q 434 634 434 1313 
Q 434 1759 690 2068 
Q 947 2378 1403 2484 
z
M 1172 3481 
Q 1172 3119 1398 2916 
Q 1625 2713 2034 2713 
Q 2441 2713 2670 2916 
Q 2900 3119 2900 3481 
Q 2900 3844 2670 4047 
Q 2441 4250 2034 4250 
Q 1625 4250 1398 4047 
Q 1172 3844 1172 3481 
z
" id="DejaVuSans-38" transform="scale(0.015625)"/>
       </defs>
       <use xlink:href="#DejaVuSans-38"/>
       <use x="63.623047" xlink:href="#DejaVuSans-30"/>
      </g>
     </g>
    </g>
    <g id="text_10">
     <!-- z [$\AA$] -->
     <g transform="translate(220.173114 218.416892)scale(0.12 -0.12)">
      <defs>
       <path d="M 353 3500 
L 3084 3500 
L 3084 2975 
L 922 459 
L 3084 459 
L 3084 0 
L 275 0 
L 275 525 
L 2438 3041 
L 353 3041 
L 353 3500 
z
" id="DejaVuSans-7a" transform="scale(0.015625)"/>
       <path id="DejaVuSans-20" transform="scale(0.015625)"/>
       <path d="M 550 4863 
L 1875 4863 
L 1875 4416 
L 1125 4416 
L 1125 -397 
L 1875 -397 
L 1875 -844 
L 550 -844 
L 550 4863 
z
" id="DejaVuSans-5b" transform="scale(0.015625)"/>
       <path d="M 3188 5081 
Q 3188 5278 3048 5417 
Q 2909 5556 2713 5556 
Q 2513 5556 2377 5420 
Q 2241 5284 2241 5081 
Q 2241 4884 2377 4746 
Q 2513 4609 2713 4609 
Q 2909 4609 3048 4746 
Q 3188 4884 3188 5081 
z
M 2203 4397 
Q 2034 4513 1945 4689 
Q 1856 4866 1856 5081 
Q 1856 5438 2106 5689 
Q 2356 5941 2713 5941 
Q 3069 5941 3320 5689 
Q 3572 5438 3572 5081 
Q 3572 4834 3458 4643 
Q 3344 4453 3128 4341 
L 3938 0 
L 3278 0 
L 3084 1197 
L 984 1197 
L 325 0 
L -341 0 
L 2203 4397 
z
M 2584 4044 
L 1275 1722 
L 2988 1722 
L 2584 4044 
z
" id="DejaVuSans-Oblique-c5" transform="scale(0.015625)"/>
       <path d="M 1947 4863 
L 1947 -844 
L 622 -844 
L 622 -397 
L 1369 -397 
L 1369 4416 
L 622 4416 
L 622 4863 
L 1947 4863 
z
" id="DejaVuSans-5d" transform="scale(0.015625)"/>
      </defs>
      <use transform="translate(0 0.171875)" xlink:href="#DejaVuSans-7a"/>
      <use transform="translate(52.490234 0.171875)" xlink:href="#DejaVuSans-20"/>
      <use transform="translate(84.277344 0.171875)" xlink:href="#DejaVuSans-5b"/>
      <use transform="translate(123.291016 0.171875)" xlink:href="#DejaVuSans-Oblique-c5"/>
      <use transform="translate(191.699219 0.171875)" xlink:href="#DejaVuSans-5d"/>
     </g>
    </g>
   </g>
   <g id="matplotlib.axis_2">
    <g id="ytick_1">
     <g id="line2d_10">
      <defs>
       <path d="M 0 0 
L -3.5 0 
" id="m282cb326ac" style="stroke:#000000;stroke-width:0.8;"/>
      </defs>
      <g>
       <use style="stroke:#000000;stroke-width:0.8;" x="51.694531" xlink:href="#m282cb326ac" y="175.801467"/>
      </g>
     </g>
     <g id="text_11">
      <!-- −2.0 -->
      <g transform="translate(22.84 179.220763)scale(0.09 -0.09)">
       <defs>
        <path d="M 678 2272 
L 4684 2272 
L 4684 1741 
L 678 1741 
L 678 2272 
z
" id="DejaVuSans-2212" transform="scale(0.015625)"/>
        <path d="M 684 794 
L 1344 794 
L 1344 0 
L 684 0 
L 684 794 
z
" id="DejaVuSans-2e" transform="scale(0.015625)"/>
       </defs>
       <use xlink:href="#DejaVuSans-2212"/>
       <use x="83.789062" xlink:href="#DejaVuSans-32"/>
       <use x="147.412109" xlink:href="#DejaVuSans-2e"/>
       <use x="179.199219" xlink:href="#DejaVuSans-30"/>
      </g>
     </g>
    </g>
    <g id="ytick_2">
     <g id="line2d_11">
      <g>
       <use style="stroke:#000000;stroke-width:0.8;" x="51.694531" xlink:href="#m282cb326ac" y="135.709761"/>
      </g>
     </g>
     <g id="text_12">
      <!-- −1.5 -->
      <g transform="translate(22.84 139.129058)scale(0.09 -0.09)">
       <use xlink:href="#DejaVuSans-2212"/>
       <use x="83.789062" xlink:href="#DejaVuSans-31"/>
       <use x="147.412109" xlink:href="#DejaVuSans-2e"/>
       <use x="179.199219" xlink:href="#DejaVuSans-35"/>
      </g>
     </g>
    </g>
    <g id="ytick_3">
     <g id="line2d_12">
      <g>
       <use style="stroke:#000000;stroke-width:0.8;" x="51.694531" xlink:href="#m282cb326ac" y="95.618056"/>
      </g>
     </g>
     <g id="text_13">
      <!-- −1.0 -->
      <g transform="translate(22.84 99.037353)scale(0.09 -0.09)">
       <use xlink:href="#DejaVuSans-2212"/>
       <use x="83.789062" xlink:href="#DejaVuSans-31"/>
       <use x="147.412109" xlink:href="#DejaVuSans-2e"/>
       <use x="179.199219" xlink:href="#DejaVuSans-30"/>
      </g>
     </g>
    </g>
    <g id="ytick_4">
     <g id="line2d_13">
      <g>
       <use style="stroke:#000000;stroke-width:0.8;" x="51.694531" xlink:href="#m282cb326ac" y="55.526351"/>
      </g>
     </g>
     <g id="text_14">
      <!-- −0.5 -->
      <g transform="translate(22.84 58.945648)scale(0.09 -0.09)">
       <use xlink:href="#DejaVuSans-2212"/>
       <use x="83.789062" xlink:href="#DejaVuSans-30"/>
       <use x="147.412109" xlink:href="#DejaVuSans-2e"/>
       <use x="179.199219" xlink:href="#DejaVuSans-35"/>
      </g>
     </g>
    </g>
    <g id="ytick_5">
     <g id="line2d_14">
      <g>
       <use style="stroke:#000000;stroke-width:0.8;" x="51.694531" xlink:href="#m282cb326ac" y="15.434646"/>
      </g>
     </g>
     <g id="text_15">
      <!-- 0.0 -->
      <g transform="translate(30.381719 18.853943)scale(0.09 -0.09)">
       <use xlink:href="#DejaVuSans-30"/>
       <use x="63.623047" xlink:href="#DejaVuSans-2e"/>
       <use x="95.410156" xlink:href="#DejaVuSans-30"/>
      </g>
     </g>
    </g>
    <g id="text_16">
     <!-- $\phi$ [$V$] -->
     <g transform="translate(16.32 112.481102)rotate(-90)scale(0.12 -0.12)">
      <defs>
       <path d="M 2991 4863 
L 2738 3572 
Q 3363 3572 3684 3094 
Q 4016 2606 3850 1747 
Q 3681 888 3159 400 
Q 2653 -78 2028 -78 
L 1784 -1331 
L 1213 -1331 
L 1456 -78 
Q 834 -78 509 400 
Q 178 888 347 1747 
Q 513 2606 1034 3094 
Q 1544 3572 2166 3572 
L 2419 4863 
L 2991 4863 
z
M 2128 434 
Q 2481 434 2784 756 
Q 3116 1116 3244 1747 
Q 3369 2372 3169 2738 
Q 2991 3059 2638 3059 
L 2128 434 
z
M 1556 434 
L 2066 3059 
Q 1716 3059 1413 2738 
Q 1072 2372 953 1747 
Q 834 1116 1028 756 
Q 1203 434 1556 434 
z
" id="DejaVuSans-Oblique-3d5" transform="scale(0.015625)"/>
       <path d="M 1319 0 
L 500 4666 
L 1119 4666 
L 1797 653 
L 4063 4666 
L 4750 4666 
L 2053 0 
L 1319 0 
z
" id="DejaVuSans-Oblique-56" transform="scale(0.015625)"/>
      </defs>
      <use transform="translate(0 0.015625)" xlink:href="#DejaVuSans-Oblique-3d5"/>
      <use transform="translate(65.966797 0.015625)" xlink:href="#DejaVuSans-20"/>
      <use transform="translate(97.753906 0.015625)" xlink:href="#DejaVuSans-5b"/>
      <use transform="translate(136.767578 0.015625)" xlink:href="#DejaVuSans-Oblique-56"/>
      <use transform="translate(205.175781 0.015625)" xlink:href="#DejaVuSans-5d"/>
     </g>
    </g>
   </g>
   <g id="line2d_15">
    <path clip-path="url(#p73ea95327b)" d="M 68.270766 15.434646 
L 70.760313 15.526636 
L 71.175238 15.766247 
L 71.590162 16.409115 
L 72.005087 17.805369 
L 72.420011 20.297792 
L 72.834936 24.032337 
L 73.664785 34.44715 
L 76.984181 83.931292 
L 82.793124 170.673905 
L 83.208049 175.584311 
L 83.622973 178.982229 
L 84.037898 180.127559 
L 84.452823 178.399328 
L 84.867747 173.498683 
L 85.282672 165.587389 
L 87.357294 115.640121 
L 87.772219 111.295952 
L 88.187143 109.73831 
L 88.602068 110.419797 
L 89.016992 112.631403 
L 89.846841 119.520152 
L 91.091615 132.931265 
L 91.921464 141.357045 
L 92.336389 144.141107 
L 92.751313 145.486586 
L 93.166238 145.327498 
L 93.581162 143.841907 
L 94.411011 138.267583 
L 95.655785 128.948667 
L 96.070709 126.673205 
L 96.485634 125.028143 
L 96.900558 124.040281 
L 97.315483 123.692426 
L 97.730407 123.941658 
L 98.145332 124.721344 
L 98.975181 127.338877 
L 99.80503 129.752043 
L 100.219954 130.18262 
L 100.634879 129.845358 
L 101.049804 128.698115 
L 101.464728 126.819763 
L 103.539351 115.347881 
L 103.954275 114.532989 
L 104.3692 114.568928 
L 104.784124 115.442672 
L 105.613973 118.995603 
L 107.273671 128.138091 
L 108.10352 134.338232 
L 109.348294 144.648147 
L 110.178143 149.463806 
L 110.593068 150.777216 
L 111.007992 151.442773 
L 111.422917 151.620658 
L 111.837841 151.456941 
L 112.252766 151.055121 
L 113.082615 149.774928 
L 113.912464 147.878811 
L 115.987086 142.046508 
L 116.402011 141.84917 
L 116.816936 142.19088 
L 118.476634 144.866193 
L 118.891558 144.978371 
L 119.721407 144.804843 
L 120.136332 145.03039 
L 120.551256 145.757272 
L 122.210954 150.372906 
L 122.625879 150.728011 
L 123.040803 150.693728 
L 123.455728 150.289156 
L 123.870652 149.462085 
L 124.285577 148.172421 
L 126.3602 140.14936 
L 126.775124 139.518649 
L 127.190049 139.297792 
L 127.604973 139.361034 
L 128.434822 139.893593 
L 129.264671 140.893979 
L 130.09452 141.946137 
L 130.509445 142.124219 
L 130.924369 141.975564 
L 131.339294 141.537062 
L 132.169143 140.292425 
L 132.584067 139.930896 
L 132.998992 140.095483 
L 133.413917 140.94287 
L 133.828841 142.437499 
L 136.733313 156.048954 
L 137.148237 157.08515 
L 137.563162 157.420416 
L 137.978086 157.112057 
L 138.393011 156.364122 
L 139.22286 154.247145 
L 140.052709 151.534509 
L 141.297483 147.089212 
L 141.712407 145.993568 
L 142.127332 145.278753 
L 142.542256 145.002075 
L 142.957181 145.1478 
L 143.78703 146.249669 
L 144.616879 147.334011 
L 145.031803 147.5827 
L 145.861652 147.598152 
L 147.106426 147.509901 
L 148.351199 147.517508 
L 148.766124 147.295382 
L 149.595973 146.274659 
L 150.425822 145.318078 
L 150.840747 145.213331 
L 151.255671 145.382961 
L 151.670596 145.800138 
L 152.08552 146.483197 
L 152.500445 147.49946 
L 152.915369 148.924458 
L 153.745218 153.104111 
L 154.989992 160.732317 
L 155.404916 162.562088 
L 155.819841 163.63246 
L 156.234765 163.84435 
L 156.64969 163.216006 
L 157.064614 161.883789 
L 158.724313 154.609843 
L 159.139237 153.429133 
L 159.554162 152.70717 
L 159.969086 152.431096 
L 160.384011 152.520525 
L 162.043709 153.807231 
L 162.458633 154.322129 
L 162.873558 155.132884 
L 164.118331 158.684132 
L 165.77803 163.008653 
L 167.022803 166.564849 
L 167.852652 169.050717 
L 168.267577 169.969604 
L 168.682501 170.508796 
L 169.097426 170.620294 
L 169.51235 170.296201 
L 169.927275 169.531911 
L 170.342199 168.315254 
L 171.172048 164.607489 
L 172.416822 157.948976 
L 172.831746 156.343293 
L 173.246671 155.372608 
L 173.661595 155.094445 
L 174.07652 155.441694 
L 174.906369 157.202888 
L 175.736218 158.736706 
L 176.151143 159.076963 
L 176.566067 159.117726 
L 176.980992 158.817377 
L 177.395916 158.065383 
L 177.810841 156.758409 
L 178.64069 152.627324 
L 179.885463 145.776512 
L 180.300388 144.202999 
L 180.715312 143.099017 
L 181.545161 141.739606 
L 182.375011 140.758071 
L 182.789935 140.539411 
L 183.20486 140.709422 
L 183.619784 141.370764 
L 184.034709 142.504023 
L 186.524256 151.034184 
L 187.354105 152.574459 
L 188.183954 153.966457 
L 189.013803 156.391157 
L 189.843652 159.086374 
L 190.258576 159.80218 
L 190.673501 159.799006 
L 191.088426 159.059842 
L 191.50335 157.707139 
L 193.163048 150.721204 
L 193.577973 149.658235 
L 193.992897 149.232394 
L 194.407822 149.662511 
L 194.822746 151.053937 
L 195.652595 155.809954 
L 196.482444 160.190388 
L 196.897369 161.502536 
L 197.312293 162.254341 
L 197.727218 162.588255 
L 198.142142 162.634986 
L 199.386916 162.207061 
L 199.801841 162.012646 
L 200.216765 161.56894 
L 200.63169 160.679978 
L 201.046614 159.279458 
L 201.876463 155.285755 
L 203.951086 143.149914 
L 204.36601 141.67061 
L 204.780935 140.719789 
L 205.195859 140.12812 
L 206.025708 139.498061 
L 206.440633 139.391912 
L 207.270482 139.524557 
L 207.685407 139.736277 
L 208.100331 140.112769 
L 208.515256 140.768526 
L 208.93018 141.78074 
L 210.174954 145.641686 
L 210.589878 146.400384 
L 211.004803 146.75437 
L 211.834652 147.022738 
L 212.664501 147.690999 
L 213.49435 148.377223 
L 214.739123 148.998732 
L 215.154048 149.516431 
L 215.568973 150.367098 
L 215.983897 151.601423 
L 217.643595 157.77647 
L 218.05852 158.304007 
L 218.473444 158.132893 
L 218.888369 157.328326 
L 219.303293 155.990355 
L 220.133142 152.146387 
L 221.377916 145.986882 
L 221.79284 144.884362 
L 222.207765 144.607221 
L 222.622689 145.077418 
L 223.452539 147.126625 
L 225.112237 151.646011 
L 226.35701 155.934156 
L 226.771935 156.804314 
L 227.186859 157.135715 
L 227.601784 156.949281 
L 228.016708 156.374214 
L 230.92118 150.995803 
L 231.336105 150.567471 
L 231.751029 150.354495 
L 232.580878 150.284456 
L 233.410727 150.440398 
L 234.240576 150.61168 
L 234.655501 150.409283 
L 235.48535 149.598518 
L 235.900274 149.387691 
L 236.315199 149.490722 
L 236.730123 149.910122 
L 237.559972 151.374836 
L 238.804746 154.096333 
L 239.634595 156.515629 
L 240.464444 159.672983 
L 242.124142 166.366373 
L 242.539067 167.3798 
L 242.953991 167.725953 
L 243.368916 167.202569 
L 243.78384 165.723767 
L 244.613689 160.56294 
L 245.443538 155.070607 
L 245.858463 153.172692 
L 246.273387 152.098327 
L 246.688312 151.825958 
L 247.103236 152.187636 
L 248.34801 154.207084 
L 248.762935 154.313104 
L 249.177859 153.982149 
L 250.837557 151.457451 
L 251.252482 151.201403 
L 252.082331 151.180075 
L 252.91218 151.122258 
L 253.742029 150.811183 
L 254.156953 150.780569 
L 254.571878 150.935376 
L 255.401727 151.744925 
L 256.231576 152.85874 
L 256.646501 153.235217 
L 257.061425 153.206033 
L 257.47635 152.606386 
L 257.891274 151.448394 
L 259.136048 147.098184 
L 259.550972 146.222209 
L 259.965897 145.74311 
L 260.795746 145.328969 
L 261.625595 145.124834 
L 262.040519 145.384166 
L 262.455444 146.084726 
L 262.870368 147.262241 
L 263.700217 150.71953 
L 265.359916 158.315615 
L 266.189765 161.029071 
L 266.604689 161.918676 
L 267.019614 162.493573 
L 267.434538 162.794018 
L 267.849463 162.885236 
L 269.924085 162.694829 
L 272.828557 163.252983 
L 286.106142 163.256458 
L 399.795462 163.247013 
L 399.795462 163.247013 
" style="fill:none;stroke:#000000;stroke-linecap:square;stroke-width:1.5;"/>
   </g>
   <g id="patch_3">
    <path d="M 51.694531 188.362205 
L 51.694531 7.2 
" style="fill:none;stroke:#000000;stroke-linecap:square;stroke-linejoin:miter;stroke-width:0.8;"/>
   </g>
   <g id="patch_4">
    <path d="M 416.371697 188.362205 
L 416.371697 7.2 
" style="fill:none;stroke:#000000;stroke-linecap:square;stroke-linejoin:miter;stroke-width:0.8;"/>
   </g>
   <g id="patch_5">
    <path d="M 51.694531 188.362205 
L 416.371697 188.362205 
" style="fill:none;stroke:#000000;stroke-linecap:square;stroke-linejoin:miter;stroke-width:0.8;"/>
   </g>
   <g id="patch_6">
    <path d="M 51.694531 7.2 
L 416.371697 7.2 
" style="fill:none;stroke:#000000;stroke-linecap:square;stroke-linejoin:miter;stroke-width:0.8;"/>
   </g>
  </g>
 </g>
 <defs>
  <clipPath id="p73ea95327b">
   <rect height="181.162205" width="364.677165" x="51.694531" y="7.2"/>
  </clipPath>
 </defs>
</svg>
